<svg xmlns="http://www.w3.org/2000/svg" xmlns:xlink="http://www.w3.org/1999/xlink" enable-background="new 0 0 2500 2500" viewBox="0 0 2500 2500" id="man-solving-issue"><g><g transform="translate(-14612.3 -5351.66) scale(1.0847)"><path fill="#a1a2ff" fill-rule="evenodd" d="M14574.5,6938.4l12.5,228.5h308.5c0,0,11.2-49.2-53-70.9c-50.6-17.2-70.2-29.6-83.1-56.3
			c-12.9-26.7-18.7-121.1-18.7-121.1l-132.4-1.9L14574.5,6938.4z" clip-rule="evenodd"></path><g><defs><path id="a" d="M14574.5,6938.4l12.5,228.5h308.5c0,0,11.2-49.2-53-70.9c-50.6-17.2-70.2-29.6-83.1-56.3
					c-12.9-26.7-18.7-121.1-18.7-121.1l-132.4-1.9L14574.5,6938.4z"></path></defs><clipPath id="b"><use overflow="visible" xlink:href="#a"></use></clipPath><g clip-path="url(#b)"><g transform="translate(1111.83 541.902) scale(.92191)"><path fill="#7f80e6" fill-rule="evenodd" d="M14782.9,6921.9c-40.8,48-111.3,51.9-114,120.8c-2.3,56.8,14.2,113.6,15.9,170.5
						c0.8,27.6,1.3,62.1-30.7,70c-18.8,4.6-37.5-5.9-52.3-15.9c-40.1-27.2-58.5-80.9-73.6-124.9c-9.7-28.4-18.9-58.4-21.1-88.5
						c-7.6-105.6,42.4-211.1,143.1-252.2L14782.9,6921.9z" clip-rule="evenodd"></path></g></g></g></g><g transform="translate(-14612.3 -5351.66) scale(1.0847)"><path fill-rule="evenodd" d="M14573.5,6936.9c-0.6,0.4-0.8,1-0.8,1.6l12.5,228.5c0,1,0.8,1.7,1.8,1.7h308.5c0.8,0,1.6-0.6,1.8-1.4
			c0,0,4.2-18.3-6.8-37.9c-7.3-12.9-21.1-26.3-47.3-35.2c-50-17-69.5-29-82.1-55.4c-12.8-26.6-18.5-120.4-18.5-120.4
			c0-0.9-0.8-1.7-1.7-1.7l-132.5-1.9c-0.4,0-0.7,0.1-1,0.3L14573.5,6936.9z M14576.4,6939.3l32.5-20.8c0,0,114.9,1.6,130.2,1.8
			c0.8,12.8,6.8,95.3,18.7,120.1c13.1,27.1,32.9,39.8,84.2,57.2c25.1,8.5,38.5,21.3,45.3,33.6c8.6,15.1,7.4,29.4,6.7,33.9
			c0,0-280.7,0-305.3,0L14576.4,6939.3z" clip-rule="evenodd"></path></g><g transform="rotate(43.952 15235.812 -13865.85) scale(1.0847)"><path fill="#a1a2ff" fill-rule="evenodd" d="M14464.2,7132.7l24.7,228.5h296.3c0,0,11.2-49.2-53-70.9c-50.6-17.2-70.2-29.6-83.1-56.3
			c-12.9-26.7-18.7-121.1-18.7-121.1l-132.4-1.9L14464.2,7132.7z" clip-rule="evenodd"></path><g><defs><path id="c" d="M14464.2,7132.7l24.7,228.5h296.3c0,0,11.2-49.2-53-70.9c-50.6-17.2-70.2-29.6-83.1-56.3
					c-12.9-26.7-18.7-121.1-18.7-121.1l-132.4-1.9L14464.2,7132.7z"></path></defs><clipPath id="d"><use overflow="visible" xlink:href="#c"></use></clipPath><g clip-path="url(#d)"><g transform="rotate(-43.952 14784.172 4726.274) scale(.92191)"><path fill="#7f80e6" fill-rule="evenodd" d="M13947.1,6803.7c5.3,27.6,12.7,54.6,26.6,79.2c12.6,22.4,31.8,42.2,40.1,66.9c7.4,22-0.4,45.9,1.1,68.5
						c1.9,28.9,16.9,55.7,34.3,77.9c21.2,27.1,65.6,76.9,104.3,48.7c39.6-28.9,55.1-80.7,58.1-127.6c5.1-77.5-11.6-186.1-74.3-240.1
						c-13.5-11.6-30.9-19.9-47.3-26.4c-16.3-6.5-32.9-12.5-50.6-13L13947.1,6803.7z" clip-rule="evenodd"></path></g></g></g></g><g transform="rotate(43.952 15235.812 -13865.85) scale(1.0847)"><path fill-rule="evenodd" d="M14463.2,7131.1c-0.6,0.4-0.9,1-0.8,1.7l24.7,228.5c0.1,0.9,0.8,1.6,1.8,1.6h296.3c0.8,0,1.6-0.6,1.8-1.4
			c0,0,4.2-18.3-6.8-37.9c-7.3-12.9-21.1-26.3-47.3-35.2c-50-17-69.5-29-82.1-55.4c-12.8-26.6-18.5-120.4-18.5-120.4
			c0-0.9-0.8-1.7-1.7-1.7l-132.5-1.9c-0.4,0-0.7,0.1-1,0.3L14463.2,7131.1z M14466.2,7133.6l32.4-20.8l130.2,1.8
			c0.8,12.8,6.8,95.3,18.7,120.1c13.1,27.1,32.9,39.8,84.2,57.2c25.1,8.5,38.5,21.3,45.3,33.6c8.6,15.1,7.4,29.4,6.7,33.9
			c-21.8,0-270.7,0-293.2,0L14466.2,7133.6z" clip-rule="evenodd"></path></g><g transform="translate(-14623.6 -5351.66) scale(1.0847)"><path fill="#ffa465" fill-rule="evenodd" d="M14196.8,6074.5c0,0-9,196.8,35.7,363.2l-259.1,368.1c0,0,88.6,85.9,142.2,118.8c0,0,292.4-249.4,327.9-315.3
			c35.5-65.9,37.6-147.6,37.6-147.6l64.6,48.9c0,0-12.7,266.9,15.7,433.1c0,0,160.6-3.6,201.7-21.3c0,0,20.7-372.9-0.7-491.1
			c-21.4-118.3-229.9-419.7-229.9-419.7L14196.8,6074.5z" clip-rule="evenodd"></path><g><defs><path id="e" d="M14196.8,6074.5c0,0-9,196.8,35.7,363.2l-259.1,368.1c0,0,88.6,85.9,142.2,118.8
					c0,0,292.4-249.4,327.9-315.3c35.5-65.9,37.6-147.6,37.6-147.6l64.6,48.9c0,0-12.7,266.9,15.7,433.1c0,0,160.6-3.6,201.7-21.3
					c0,0,20.7-372.9-0.7-491.1c-21.4-118.3-229.9-419.7-229.9-419.7L14196.8,6074.5z"></path></defs><clipPath id="f"><use overflow="visible" xlink:href="#e"></use></clipPath><g clip-path="url(#f)"><g transform="translate(1122.32 541.902) scale(.92191)"><path fill="#f37f3e" fill-rule="evenodd" d="M14555,5946.8c-66.2,114-238.3,105.2-270,163.9c-43.4,80.2,23.2,235.8,5.6,333.9
						c-11.3,63.3-61.2,101.1-94.5,153.3c-37.6,59.2-69.1,122.3-104.5,182.8c-38.5,65.6-125.5,207.6-219.1,166.2
						c-161.6-71.4-139.9-365.1-106-498.7c44.8-175.8,175.3-552,369-620.1c126.8-44.6,180.4-19,300.4-23.3L14555,5946.8z" clip-rule="evenodd"></path></g><g transform="translate(1122.32 541.902) scale(.92191)"><path fill="#f37f3e" fill-rule="evenodd" d="M14490.2,6421.1l-5.6-191.6c0,0,85,155.4,131.8,208.9c46.9,53.5-13.4,405.5,44.6,515.8l-156.2-30.2
						l19.9-450.7L14490.2,6421.1z" clip-rule="evenodd"></path></g></g></g></g><g transform="translate(-14623.6 -5351.66) scale(1.0847)"><path fill-rule="evenodd" d="M14196.5,6072.7c-0.8,0.2-1.4,0.9-1.5,1.7c0,0-9.1,196.4,35.6,362.9l-258.7,367.5c-0.5,0.7-0.4,1.7,0.3,2.3
			c0,0,88.8,86.1,142.4,119c0.7,0.4,1.5,0.3,2.1-0.2c0,0,143.4-122.2,241.5-218.2c42.2-41.3,76.2-77.8,86.8-97.6
			c31.4-58.2,36.8-128.7,37.6-145l61.2,46.3c-0.8,17.5-11.8,272,15.7,432.6c0.2,0.9,0.9,1.5,1.9,1.5c0,0,161.1-3.7,202.3-21.5
			c0.7-0.3,1-0.9,1.1-1.6c0,0,20.7-373.2-0.7-491.6c-21.4-118.5-230.2-420.4-230.2-420.4c-0.4-0.6-1.1-0.9-1.8-0.8L14196.5,6072.7z
			 M14198.6,6076l333.3-62.5c12.8,18.7,208.2,303.9,228.9,418c20.7,114.4,1.9,467.1,0.7,489.6c-40.1,16.3-181.9,20.3-198.4,20.7
			c-28.1-166.2-15.5-431.2-15.5-431.2c0.1-0.6-0.2-1.2-0.7-1.5l-64.7-48.9c-0.5-0.4-1.2-0.5-1.8-0.2c-0.7,0.3-1,0.9-1,1.6
			c0,0-2.1,81.2-37.4,146.8c-10.6,19.7-44.2,55.8-86.2,96.8c-93.2,91.2-227.4,206.2-240.3,217.2c-50-31.1-129.3-106.9-139.6-116.8
			l258.2-366.9c0.3-0.4,0.4-1,0.3-1.5C14191.7,6279.3,14197.8,6094.1,14198.6,6076L14198.6,6076z" clip-rule="evenodd"></path></g><g transform="translate(-14623.6 -5351.66) scale(1.0847)"><path fill="#ffaab0" fill-rule="evenodd" d="M14093.1,6252.4c0,0,14.8,70.8,18.3,88c3.5,17.2-31.6,10.7-40.6-25.1l5.8-57.2L14093.1,6252.4z" clip-rule="evenodd"></path></g><g transform="translate(-14623.6 -5351.66) scale(1.0847)"><path fill-rule="evenodd" d="M14094.9,6252.1c-0.2-0.5-0.5-0.9-0.9-1.2c-0.5-0.3-0.9-0.3-1.4-0.1l-16.7,5.7c-0.7,0.2-1.1,0.8-1.2,1.5
			l-5.7,57.2c0,0.2,0,0.4,0,0.6c5.8,22.4,21.3,33.6,32,35.3c4.9,0.8,8.9-0.5,10.9-3.2c1.4-1.9,2-4.5,1.3-7.9
			C14109.7,6322.9,14094.9,6252.1,14094.9,6252.1z M14091.7,6254.8c2.5,11.6,14.8,70.5,17.9,86c0.5,2.1,0.3,3.8-0.7,4.9
			c-1.4,1.8-4.1,2.3-7.4,1.8c-9.7-1.5-23.7-12-28.9-32.3c0,0,5.6-55.8,5.6-55.8L14091.7,6254.8z" clip-rule="evenodd"></path></g><g transform="translate(-14623.6 -5351.66) scale(1.0847)"><path fill="#ffcfcf" fill-rule="evenodd" d="M14094.5,6208.5c0,0-2.4,83.7-4.5,101.2c-2.2,17.5-27.9,81.8-38.7,88.4c-10.7,6.6-63.4-6.5-67.1-24.7
			c-3.7-18.3,12.8-65.2,12.8-65.2s-20.7-52,2.8-82l32.3-24.8L14094.5,6208.5z" clip-rule="evenodd"></path></g><g transform="translate(-14623.6 -5351.66) scale(1.0847)"><path fill-rule="evenodd" d="M14096.3,6208.5c0.1-0.9-0.7-1.7-1.6-1.8l-62.3-7.2c-0.5-0.1-0.9,0.1-1.3,0.4l-32.2,24.8
			c-0.2,0.1-0.3,0.2-0.4,0.3c-9.7,12.3-12.2,28.3-11.6,43c0.8,19.4,6.9,36.7,8.2,40.2c-1.3,3.8-8.2,24.5-11.5,42.7
			c-1.5,8.9-2.3,17.2-1.1,22.8c0.7,3.2,2.7,6.4,5.8,9.3c4.2,4,10.5,7.6,17.5,10.5c12.2,5,26.6,8.1,36.3,8.1c4.6,0,8.2-0.7,10.3-2
			c1.5-0.9,3.1-2.6,5-5.2c2.5-3.5,5.4-8.4,8.3-14.3c11.5-22.5,24.7-58,26.2-70.3C14093.9,6292.4,14096.3,6208.5,14096.3,6208.5z
			 M14092.7,6210.1c-0.4,11.8-2.5,83.4-4.5,99.4c-1.5,12.1-14.5,47-25.8,69.1c-2.8,5.6-5.6,10.4-8,13.8c-1.5,2-2.8,3.5-4,4.2
			c-1.7,1.1-4.6,1.5-8.4,1.5c-9.3,0-23.3-3-34.9-7.8c-6.6-2.7-12.5-6.1-16.5-9.8c-2.5-2.3-4.1-4.8-4.6-7.4c-1-5.3-0.4-13.1,1.1-21.5
			c3.6-19.9,11.6-42.8,11.6-42.8c0.1-0.4,0.1-0.9-0.1-1.3c0,0-7.3-18.4-8.1-39.6c-0.6-13.8,1.6-28.8,10.7-40.5l31.6-24.3
			L14092.7,6210.1L14092.7,6210.1z" clip-rule="evenodd"></path></g><g transform="translate(-14624.7 -5353.7) scale(1.0847)"><path fill-rule="evenodd" d="M14056.8,6337.1c-7.5,24.7-16.5,43.4-24.1,61.6c-0.4,0.9,0,2,0.9,2.4c0.9,0.4,2,0,2.4-1
			c7.7-18.3,16.8-37.1,24.3-62c0.3-1-0.3-2-1.2-2.3C14058.1,6335.6,14057.1,6336.1,14056.8,6337.1z" clip-rule="evenodd"></path></g><g transform="translate(-14648.2 -5360.58) scale(1.0847)"><path fill-rule="evenodd" d="M14057.3,6341c-7.4,24.7-15.7,39.9-23.4,58.1c-0.4,0.9,0,2,0.9,2.4c0.9,0.4,2,0,2.4-1
			c7.7-18.3,16-33.5,23.6-58.4c0.3-1-0.3-2-1.2-2.3C14058.6,6339.5,14057.6,6340,14057.3,6341z" clip-rule="evenodd"></path></g><g transform="translate(-14670.2 -5369.42) scale(1.0847)"><path fill-rule="evenodd" d="M14056.8,6345.6c-7.5,24.7-14,35.8-21.7,53.9c-0.4,0.9,0,2,0.9,2.4c0.9,0.4,2,0,2.4-1
			c7.7-18.3,14.2-29.4,21.8-54.3c0.3-1-0.2-2-1.1-2.3C14058,6344.1,14057.1,6344.6,14056.8,6345.6z" clip-rule="evenodd"></path></g><g transform="translate(-14623.6 -5351.66) scale(1.0847)"><path fill="#fbcf3b" fill-rule="evenodd" d="M14243.4,5335.6c0.8,4.5,28.8-54.5,138.1-49.7c12.4,0.5-14.2,30-14.2,30s47.6-3.9,50.6,18
			c3,22-29.2,43.2-29.2,43.2l-116.4,68.6l-32.6,7.9c0,0-37.9-44.9-28-82C14218.1,5347.7,14243.4,5335.6,14243.4,5335.6z" clip-rule="evenodd"></path><g><defs><path id="g" d="M14243.4,5335.6c0.8,4.5,28.8-54.5,138.1-49.7c12.4,0.5-14.2,30-14.2,30s47.6-3.9,50.6,18
					c3,22-29.2,43.2-29.2,43.2l-116.4,68.6l-32.6,7.9c0,0-37.9-44.9-28-82C14218.1,5347.7,14243.4,5335.6,14243.4,5335.6z"></path></defs><clipPath id="h"><use overflow="visible" xlink:href="#g"></use></clipPath><g clip-path="url(#h)"><g transform="matrix(.99095 0 0 .92191 129.366 544.735)"><path fill="#fa973c" fill-rule="evenodd" d="M14236.2,5198.9c-3.4,7.8-6.6,16-8.2,24.4c-0.8,4.9-1.1,9.4-0.6,14.4c0.4,3.3,1.2,6.5,2.6,9.6
						c10.4,22.7,40.7,15.9,57.4,5.1c5.9-3.8,11.5-8.1,16.5-13.2c0.4-0.4,4.1-5.1,4.3-5c9.3,2.6,12.3,17.3,12.8,24.9
						c1.4,24.7-13.2,49.3-30.5,65.7c-8.1,7.7-18.2,12.8-28.7,16.5c-8.6,3.1-17.7,5.9-26.9,6c-9.6,0.2-20-0.6-28.9-4.3
						c-41.9-17.2-50.6-70.5-38.1-109.7L14236.2,5198.9z" clip-rule="evenodd"></path></g></g></g></g><g transform="translate(-14623.6 -5351.66) scale(1.0847)"><path fill-rule="evenodd" d="M14243.3,5333.8c-0.2,0-0.5,0.1-0.7,0.2c0,0-26.1,12.5-32.7,37.2c-4.1,15.2-0.4,31.8,5.6,46.1
			c8.9,21.2,22.7,37.6,22.7,37.6c0.5,0.5,1.1,0.8,1.8,0.6l32.6-7.9c0.2,0,0.4-0.1,0.5-0.2l116.5-68.6c0,0,0,0,0.1,0
			c0,0,11.8-7.8,20.6-18.9c6-7.6,10.6-16.8,9.3-26.1c-1.3-9.5-10.1-14.7-20.5-17.3c-10.2-2.6-21.7-2.6-27.8-2.5
			c4.1-4.9,11.6-14.1,14.1-20.6c1.2-2.9,1.3-5.4,0.4-7c-0.8-1.2-2.1-2.1-4.3-2.2c-88.4-3.9-124.3,33.6-135.4,46.4
			C14245,5331.9,14243.9,5333.2,14243.3,5333.8z M14243.4,5337.7c0.4,0,0.8,0,1.1-0.2c0.3-0.1,0.8-0.5,1.3-1
			c5.9-6.2,38.2-53,135.6-48.7c0.6,0,1,0.1,1.3,0.3c0.2,0.2,0.3,0.6,0.2,1c0,0.8-0.3,1.8-0.8,2.9c-3.5,8.6-16.2,22.7-16.2,22.7
			c-0.5,0.6-0.6,1.4-0.3,2c0.4,0.7,1,1.1,1.8,1c0,0,16.8-1.4,30.9,2.2c8.8,2.2,16.6,6.3,17.7,14.3c1.1,8.3-3.2,16.5-8.6,23.3
			c-8.2,10.2-19,17.6-19.8,18.1c0,0-116.2,68.4-116.2,68.4l-31.2,7.6c-2.9-3.6-14-17.9-21.4-35.8c-5.8-13.6-9.3-29.3-5.5-43.8
			C14219,5351.4,14239.2,5339.9,14243.4,5337.7z M14245.2,5335.2v0.1C14245.2,5335.3,14245.2,5335.3,14245.2,5335.2z
			 M14245.2,5335.1L14245.2,5335.1C14245.2,5335.1,14245.2,5335.2,14245.2,5335.1L14245.2,5335.1z M14245.1,5335L14245.1,5335
			L14245.1,5335L14245.1,5335z" clip-rule="evenodd"></path></g><g transform="matrix(.99868 .21928 -.40077 .78866 -11201.8 -7063)"><path fill-rule="evenodd" d="M14435.3,5040.9l21.7,37.4c0.7,1.2,1.9,1.7,2.7,1.2c0.8-0.5,1-1.8,0.4-3l-21.6-37.4c-0.7-1.2-2-1.7-2.8-1.2
			C14434.8,5038.4,14434.6,5039.8,14435.3,5040.9z" clip-rule="evenodd"></path></g><g transform="matrix(.60528 -.7743 .27294 .68495 -9043.01 8229.37)"><path fill-rule="evenodd" d="M14566.6,4764.9l21.7,37.4c0.9,1.6,2.4,2.5,3.2,2c0.8-0.5,0.8-2.2-0.1-3.8l-21.6-37.4c-0.9-1.6-2.5-2.5-3.3-2
			C14565.6,4761.5,14565.7,4763.2,14566.6,4764.9z" clip-rule="evenodd"></path></g><g transform="translate(-14623.6 -5351.66) scale(1.0847)"><path fill-rule="evenodd" d="M14527.7,5256.8l-20.1,29.3c-0.6,0.8-0.4,2,0.5,2.5c0.8,0.6,2,0.4,2.5-0.5l20.1-29.3c0.6-0.8,0.3-2-0.5-2.5
			C14529.4,5255.8,14528.2,5256,14527.7,5256.8z" clip-rule="evenodd"></path></g><g transform="translate(-14623.6 -5351.66) scale(1.0847)"><path fill-rule="evenodd" d="M14725,5214.8l30.7,11.9c0.9,0.4,2.1-0.1,2.4-1c0.4-0.9-0.1-2-1-2.3l-30.7-11.9c-0.9-0.4-2,0.1-2.4,1
			C14723.6,5213.3,14724,5214.4,14725,5214.8z" clip-rule="evenodd"></path></g><g transform="translate(-14623.6 -5351.66) scale(1.0847)"><path fill-rule="evenodd" d="M14709,5102.6l17.9-16.8c0.8-0.7,0.8-1.8,0.1-2.6s-1.8-0.8-2.5-0.1l-18,16.8c-0.7,0.7-0.8,1.8-0.1,2.6
			C14707.1,5103.2,14708.2,5103.3,14709,5102.6z" clip-rule="evenodd"></path></g><g transform="matrix(.95824 0 0 1.0847 -12795 -5332.36)"><path fill-rule="evenodd" d="M13502.2,7151h2387.2c1.1,0,2.1-0.8,2.1-1.8c0-1-0.9-1.8-2.1-1.8h-2387.2c-1.1,0-2,0.8-2,1.8
			C13500.3,7150.2,13501.1,7151,13502.2,7151z" clip-rule="evenodd"></path></g><g transform="translate(46.49 253.826) scale(.57753)"><path fill="#fff" fill-rule="evenodd" d="M1189.8,596.7c0-14.6-5.8-28.6-16.1-39c-10.3-10.3-24.4-16.1-39-16.1c-198.4,0-875.1,0-1073.5,0
			c-14.6,0-28.6,5.8-39,16.1C11.8,568,6,582.1,6,596.7c0,148.8,0,557.4,0,706.1c0,14.6,5.8,28.6,16.1,39
			c10.3,10.3,24.4,16.1,39,16.1h1073.5c14.6,0,28.6-5.8,39-16.1c10.3-10.3,16.1-24.4,16.1-39C1189.8,1154,1189.8,745.5,1189.8,596.7
			z" clip-rule="evenodd"></path><g><defs><path id="i" d="M1189.8,596.7c0-14.6-5.8-28.6-16.1-39c-10.3-10.3-24.4-16.1-39-16.1c-198.4,0-875.1,0-1073.5,0
					c-14.6,0-28.6,5.8-39,16.1C11.8,568,6,582.1,6,596.7c0,148.8,0,557.4,0,706.1c0,14.6,5.8,28.6,16.1,39
					c10.3,10.3,24.4,16.1,39,16.1h1073.5c14.6,0,28.6-5.8,39-16.1c10.3-10.3,16.1-24.4,16.1-39
					C1189.8,1154,1189.8,745.5,1189.8,596.7z"></path></defs><clipPath id="j"><use overflow="visible" xlink:href="#i"></use></clipPath><g clip-path="url(#j)"><g transform="translate(-23293.4 -8688.11) scale(1.7315)"><path fill="#f9e8ed" fill-rule="evenodd" d="M14027.7,5310.3c13.3,21,24.7,43.1,31.8,67.1c18.9,64.2,2.2,136.8-45.3,184.5
						c-23.7,23.9-52,42.6-75.5,66.8c-25.2,25.9-45.2,56.5-59.5,89.6c-39.3,91.3,20.7,188.7,122.3,192.5
						c164.2,6.1,257.4-172.1,277.9-313.2c8.3-56.9,5.8-117.9-3.4-174.7c-11.1-68.5-37.5-124-86.7-171.5
						c-13.9-13.4-30.1-34.3-51-35.9L14027.7,5310.3z" clip-rule="evenodd"></path></g></g></g></g><g transform="translate(46.49 253.826) scale(.57753)"><path fill-rule="evenodd" d="M1193.2,596.7c0-15.5-6.2-30.4-17.1-41.4c-11-11-25.9-17.1-41.4-17.1c-198.4,0-875.1,0-1073.5,0
			c-15.5,0-30.4,6.2-41.4,17.1c-11,11-17.1,25.9-17.1,41.4c0,148.8,0,557.4,0,706.1c0,15.5,6.2,30.4,17.1,41.4
			c11,11,25.9,17.1,41.4,17.1h1073.5c15.5,0,30.4-6.2,41.4-17.1c11-11,17.1-25.9,17.1-41.4C1193.2,1154,1193.2,745.5,1193.2,596.7z
			 M1186.4,596.7c0,148.8,0,557.4,0,706.1c0,13.7-5.4,26.9-15.1,36.6c-9.7,9.7-22.9,15.1-36.6,15.1H61.1c-13.7,0-26.9-5.4-36.6-15.1
			c-9.7-9.7-15.1-22.9-15.1-36.6V596.7c0-13.7,5.4-26.9,15.1-36.6c9.7-9.7,22.9-15.1,36.6-15.1c198.4,0,875.1,0,1073.5,0
			c13.7,0,26.9,5.4,36.6,15.1C1180.9,569.8,1186.4,583,1186.4,596.7z" clip-rule="evenodd"></path></g><g transform="matrix(.57753 0 0 .10632 46.49 679.121)"><path fill="#a1a2ff" fill-rule="evenodd" d="M1189.8-759c0-79.4-5.8-155.6-16.1-211.7c-10.3-56.2-24.4-87.7-39-87.7c-198.4,0-875.1,0-1073.5,0
			c-14.6,0-28.6,31.5-39,87.7C11.8-914.6,6-838.4,6-759c0,233,0,517,0,517h1183.8C1189.8-242,1189.8-526,1189.8-759z" clip-rule="evenodd"></path><g><defs><path id="k" d="M1189.8-759c0-79.4-5.8-155.6-16.1-211.7c-10.3-56.2-24.4-87.7-39-87.7c-198.4,0-875.1,0-1073.5,0
					c-14.6,0-28.6,31.5-39,87.7C11.8-914.6,6-838.4,6-759c0,233,0,517,0,517h1183.8C1189.8-242,1189.8-526,1189.8-759z"></path></defs><clipPath id="l"><use overflow="visible" xlink:href="#k"></use></clipPath><g clip-path="url(#l)"><g transform="matrix(1.7315 0 0 9.40597 -23293.4 -51196.5)"><path fill="#7f80e6" fill-rule="evenodd" d="M14027.7,5310.3c13.3,21,24.7,43.1,31.8,67.1c18.9,64.2,2.2,136.8-45.3,184.5
						c-23.7,23.9-52,42.6-75.5,66.8c-25.2,25.9-45.2,56.5-59.5,89.6c-39.3,91.3,20.7,188.7,122.3,192.5
						c164.2,6.1,257.4-172.1,277.9-313.2c8.3-56.9,5.8-117.9-3.4-174.7c-11.1-68.5-37.5-124-86.7-171.5
						c-13.9-13.4-30.1-34.3-51-35.9L14027.7,5310.3z" clip-rule="evenodd"></path></g></g></g></g><g transform="matrix(.57753 0 0 .10632 46.49 679.121)"><path fill-rule="evenodd" d="M1193.2-759c0-84.3-6.2-165.2-17.1-224.8c-11-59.6-25.9-93.1-41.4-93.1c-198.4,0-875.1,0-1073.5,0
			c-15.5,0-30.4,33.5-41.4,93.1C8.8-924.2,2.6-843.3,2.6-759c0,233,0,517,0,517c0,10.2,1.5,18.5,3.4,18.5h1183.8
			c1.9,0,3.4-8.3,3.4-18.5V-759z M1186.4-759v498.5c-67.2,0-1109.7,0-1177,0V-759c0-74.5,5.4-146,15.1-198.7
			c9.7-52.7,22.9-82.3,36.6-82.3c198.4,0,875.1,0,1073.5,0c13.7,0,26.9,29.6,36.6,82.3C1180.9-905,1186.4-833.5,1186.4-759z" clip-rule="evenodd"></path></g><g transform="translate(-62.775 1.296) scale(.85871)"><circle cx="195.7" cy="708.8" r="21.4" fill="#f45fa8" fill-rule="evenodd" clip-rule="evenodd"></circle></g><g transform="translate(-62.775 1.296) scale(.85871)"><path fill-rule="evenodd" d="M195.7,685.1c-13.1,0-23.7,10.6-23.7,23.7c0,13.1,10.6,23.7,23.7,23.7s23.7-10.6,23.7-23.7
			C219.5,695.8,208.8,685.1,195.7,685.1z M195.7,689.7c10.6,0,19.1,8.6,19.1,19.1s-8.6,19.1-19.1,19.1s-19.1-8.6-19.1-19.1
			S185.2,689.7,195.7,689.7z" clip-rule="evenodd"></path></g><g transform="translate(-2.207 1.296) scale(.85871)"><circle cx="191.7" cy="708.8" r="21.4" fill="#fbcf3b" fill-rule="evenodd" clip-rule="evenodd"></circle></g><g transform="translate(-2.207 1.296) scale(.85871)"><path fill-rule="evenodd" d="M191.7,685.1c-13.1,0-23.7,10.6-23.7,23.7c0,13.1,10.6,23.7,23.7,23.7s23.7-10.6,23.7-23.7
			C215.4,695.8,204.8,685.1,191.7,685.1z M191.7,689.7c10.6,0,19.1,8.6,19.1,19.1s-8.6,19.1-19.1,19.1s-19.1-8.6-19.1-19.1
			S181.1,689.7,191.7,689.7z" clip-rule="evenodd"></path></g><g transform="translate(58.36 1.296) scale(.85871)"><circle cx="187.7" cy="708.8" r="21.4" fill="#a6bf49" fill-rule="evenodd" clip-rule="evenodd"></circle></g><g transform="translate(58.36 1.296) scale(.85871)"><path fill-rule="evenodd" d="M187.7,685.1c-13.1,0-23.7,10.6-23.7,23.7c0,13.1,10.6,23.7,23.7,23.7s23.7-10.6,23.7-23.7
			C211.4,695.8,200.7,685.1,187.7,685.1z M187.7,689.7c10.6,0,19.1,8.6,19.1,19.1s-8.6,19.1-19.1,19.1s-19.1-8.6-19.1-19.1
			S177.1,689.7,187.7,689.7z" clip-rule="evenodd"></path></g><g transform="translate(-14623.6 -5351.66) scale(1.0847)"><path fill-rule="evenodd" d="M13595.8,5643.1h349.8c1,0,1.8-0.8,1.8-1.8s-0.8-1.8-1.8-1.8h-349.8c-1,0-1.8,0.8-1.8,1.8
			S13594.7,5643.1,13595.8,5643.1z" clip-rule="evenodd"></path></g><g transform="matrix(.76644 0 0 1.0847 -10254.9 -5229.41)"><path fill-rule="evenodd" d="M13541.4,5636.7h349.8c1.4,0,2.5-0.8,2.5-1.8s-1.1-1.8-2.5-1.8h-349.8c-1.4,0-2.5,0.8-2.5,1.8
			S13540,5636.7,13541.4,5636.7z" clip-rule="evenodd"></path></g><g transform="rotate(-8.876 -35784.132 66162.827) scale(1.27018)"><path fill="#ffcfcf" fill-rule="evenodd" d="M8408.8,5451.9c0,0,11.6,68.3-5.8,95c-15,23.1-34.1,25.1-44.8,25.2l-0.9,51.2c0,0-14.6,13.9-35.7,12.8
			c-10.8-0.6-22.7-9.8-36.7-17.3l7.4-132.8c0,0,21.6,6.8,48.7-36.1C8362.6,5460.5,8396.1,5460.9,8408.8,5451.9z" clip-rule="evenodd"></path><g><defs><path id="m" d="M8408.8,5451.9c0,0,11.6,68.3-5.8,95c-15,23.1-34.1,25.1-44.8,25.2l-0.9,51.2c0,0-14.6,13.9-35.7,12.8
					c-10.8-0.6-22.7-9.8-36.7-17.3l7.4-132.8c0,0,21.6,6.8,48.7-36.1C8362.6,5460.5,8396.1,5460.9,8408.8,5451.9z"></path></defs><clipPath id="n"><use overflow="visible" xlink:href="#m"></use></clipPath><g clip-path="url(#n)"><g transform="matrix(.77786 .12148 -.17675 1.13174 -1835.35 -2343.98)"><path fill="#ffaab0" fill-rule="evenodd" d="M14349.5,5455.3c-10.5-0.6-20.6-3.1-30.9-4.9c-2.8-0.5-5.7-0.8-8.5-0.8c-0.5,0-2.5-0.2-3,0.3
						c-2.2,1.9-1.3,6.1-0.7,8.5c1.9,6.7,7.4,12.3,12.5,16.6c10,8.3,22.1,14.2,34,18.9c6.4,2.5,13.2,5,20.1,5.7
						c4.7,0.5,12.2,1.5,16.8-0.9c9-4.5,11.7-16.2,10.6-25.6L14349.5,5455.3z" clip-rule="evenodd"></path></g></g></g></g><g transform="rotate(-8.876 -35784.132 66162.827) scale(1.27018)"><path fill-rule="evenodd" d="M8410.3,5451.7c-0.1-0.5-0.4-1-0.9-1.2c-0.5-0.2-1-0.1-1.5,0.2c-4.9,3.4-13,5.4-22.3,5.9
			c-14.2,0.8-31.2-1.8-43.8-8.1c-0.7-0.4-1.6-0.1-2,0.6c-26.3,41.7-47,35.5-47,35.5c-0.5-0.1-1-0.1-1.3,0.2
			c-0.4,0.3-0.6,0.7-0.7,1.2l-7.4,132.8c0,0.6,0.3,1.2,0.8,1.5c8.4,4.5,16,9.6,23.1,13.1c4.9,2.4,9.6,4.1,14.2,4.4
			c21.8,1.2,36.8-13.2,36.8-13.2c0.3-0.3,0.5-0.7,0.5-1.1l0.9-49.7c11.2-0.3,29.8-3.2,44.6-25.9c7.1-10.9,9.5-28.5,9.8-45.8
			C8414.5,5476.4,8410.3,5451.7,8410.3,5451.7z M8407.6,5454.5c1,6.6,3.7,26.7,3.4,47.4c-0.3,16.6-2.5,33.7-9.3,44.1
			c-14.6,22.4-33.2,24.4-43.5,24.5c-0.8,0-1.5,0.7-1.5,1.5l-0.9,50.5c-2.6,2.3-15.8,12.9-34.1,11.9c-4.1-0.2-8.4-1.8-13-4
			c-6.8-3.4-14.2-8.2-22.2-12.6l7.2-130.1c5.9,0.7,25-0.5,47.9-36c13,6.1,29.9,8.6,44.1,7.8
			C8394.6,5459.2,8402.3,5457.4,8407.6,5454.5L8407.6,5454.5z" clip-rule="evenodd"></path></g><g transform="matrix(-1.24524 .25051 .25051 1.24524 3207.13 -681.628)"><path fill="#a1a2ff" fill-rule="evenodd" d="M1999.3,552.9c-16.5-52.1-47.8-82.8-47.8-82.8c13.8,1.8,11.7,0.8,28,5.8c33.8,18.9,40.8,61.5,44.7,75.2
			c13.8,4.3,23.9,17.2,23.9,32.5c0,18.8-15.3,34-34,34c-18.8,0-34-15.3-34-34C1980.1,570,1988,558.4,1999.3,552.9z" clip-rule="evenodd"></path></g><g transform="matrix(-1.24524 .25051 .25051 1.24524 3207.13 -681.628)"><path fill-rule="evenodd" d="M1997.5,552.1c-16.4-50.9-47-81-47-81c-0.5-0.5-0.6-1.2-0.3-1.8c0.3-0.6,0.9-0.9,1.6-0.9
			c14,1.8,11.8,0.9,28.2,5.9c0.1,0,0.2,0.1,0.3,0.1c33.6,18.8,41.2,60.7,45.2,75.3c14.1,4.8,24.2,18.1,24.2,33.7
			c0,19.6-15.9,35.6-35.6,35.6c-19.6,0-35.6-15.9-35.6-35.6C1978.5,569.9,1986.2,558.1,1997.5,552.1z M2000.8,552.4
			c0.2,0.7-0.1,1.5-0.8,1.9c-10.9,5.3-18.4,16.4-18.4,29.3c0,17.9,14.6,32.5,32.5,32.5c17.9,0,32.5-14.6,32.5-32.5
			c0-14.6-9.6-26.9-22.8-31c-0.5-0.2-0.9-0.6-1-1.1c-3.8-13.5-10.6-55.5-43.8-74.2c-14.1-4.3-14.1-4.1-23.3-5.2
			C1963.9,481.2,1987.3,509.7,2000.8,552.4z" clip-rule="evenodd"></path></g><g transform="matrix(-1.24524 .25051 .25051 1.24524 3207.13 -681.628)"><path fill-rule="evenodd" d="M1993.5,610.5c0,0-14.2,20.2-36.1,25.5c-0.8,0.2-1.7-0.3-1.9-1.1c-0.2-0.8,0.3-1.7,1.1-1.9
			c20.8-5,34.3-24.2,34.3-24.2c0.5-0.7,1.5-0.9,2.2-0.4C1993.8,608.8,1994,609.8,1993.5,610.5z" clip-rule="evenodd"></path></g><g transform="matrix(-1.4576 .29324 .29324 1.4576 3565.72 -939.637)"><circle cx="1936.8" cy="666.1" r="10.8" fill-rule="evenodd" clip-rule="evenodd" transform="rotate(-11.373 1937.058 666.121)"></circle></g><g transform="rotate(-20.436 -12017.009 30731.537) scale(1.27018)"><path fill="#ffcfcf" fill-rule="evenodd" d="M8418.1,5459.8c0,0,28.4,27.8,46.4,37.6c0,0-37.5-2.8-49.6-7.4l-3.8,15.1c0,0-14.9,1.2-26.4-6.1
			L8418.1,5459.8z" clip-rule="evenodd"></path></g><g transform="rotate(-20.436 -12017.009 30731.537) scale(1.27018)"><path fill-rule="evenodd" d="M8417,5460.9c0,0,23.2,22.7,41,34.4c-11.2-1-33.8-3.4-42.6-6.8c-0.4-0.2-0.9-0.1-1.3,0.1
			c-0.4,0.2-0.7,0.6-0.8,1l-3.5,14c-3.6,0.1-15.1,0-24.3-5.9c-0.7-0.5-1.7-0.2-2.1,0.5c-0.5,0.7-0.2,1.7,0.5,2.1
			c11.9,7.6,27.3,6.3,27.3,6.3c0.7,0,1.2-0.5,1.4-1.2l3.4-13.5c13.6,4.3,48.4,7,48.4,7c0.7,0.1,1.4-0.4,1.6-1.1
			c0.2-0.7-0.1-1.4-0.7-1.8c-17.9-9.7-46.1-37.4-46.1-37.4c-0.6-0.6-1.6-0.6-2.2,0S8416.4,5460.3,8417,5460.9z" clip-rule="evenodd"></path></g><g transform="matrix(-.94583 .35242 .35242 .94583 10469.6 -8620.2)"><path fill-rule="evenodd" d="M12033.4,5228.4c0,0-2.8,16.5-28.9,23.9c-1,0.3-2.2-0.3-2.5-1.3c-0.3-1,0.3-2.1,1.3-2.4
			c23.3-6.7,26.2-20.9,26.2-20.9c0.2-1.1,1.2-1.8,2.3-1.6C12032.9,5226.3,12033.6,5227.4,12033.4,5228.4z" clip-rule="evenodd"></path></g><g transform="translate(-4272.47 140.833) scale(1.01629)"><circle cx="5410.9" cy="112.9" r="104.3" fill="#a6bf49" fill-rule="evenodd" clip-rule="evenodd"></circle><g><defs><circle id="o" cx="5410.9" cy="112.9" r="103.2"></circle></defs><clipPath id="p"><use overflow="visible" xlink:href="#o"></use></clipPath><g clip-path="url(#p)"><g transform="translate(9.567 -5.318)"><path fill="#68a462" fill-rule="evenodd" d="M5422,17.3c46.2,42.8,71.7,119.4,23.7,170.9c-20.5,22-49.8,30.3-78.8,33c-9.3,0.8-18.7,1-28,0.9
						c-3.8,0-7.6-0.1-11.5,0c-1.7,0-5.5-1.4-5,0.2c5.5,16.3,29.9,25.6,45.2,27.3c107,12.1,219.1-80.6,195.9-193.7
						c-14-68.1-89.8-118.7-154.4-80.8L5422,17.3z" clip-rule="evenodd"></path></g></g></g></g><g transform="translate(-4272.47 140.833) scale(1.01629)"><path fill-rule="evenodd" d="M5410.9,9.5c-57.1,0-103.5,46.4-103.5,103.5s46.4,103.5,103.5,103.5s103.5-46.4,103.5-103.5
			S5468,9.5,5410.9,9.5z M5410.9,13.3c55,0,99.6,44.6,99.6,99.6c0,55-44.6,99.6-99.6,99.6c-55,0-99.6-44.6-99.6-99.6
			C5311.4,58,5356,13.3,5410.9,13.3z" clip-rule="evenodd"></path></g><g transform="translate(-4265.97 139.245) scale(1.01629)"><path fill="#fff" fill-rule="evenodd" d="M5362.2,125.6l33.1,27.6c2,1.7,4.6,2.5,7.2,2.2c2.6-0.3,5-1.6,6.7-3.6l44.6-55.2c3.4-4.2,2.8-10.4-1.5-13.8
			c-4.2-3.4-10.4-2.8-13.8,1.5l-38.4,47.4l-25.5-21.2c-4.2-3.5-10.4-2.9-13.8,1.3C5357.4,115.9,5358,122.1,5362.2,125.6z" clip-rule="evenodd"></path></g><g transform="translate(-14623.6 -5351.66) scale(1.0847)"><path fill="#8ab8ea" fill-rule="evenodd" d="M14397.5,5565.4c0,0,132.7,25.9,157.3,64.4c24.5,38.5,62.9,154.1,62.9,154.1s125-75,188.5-94.7l44.3,104.6
			c0,0-149.7,144-197.9,166.4c-48.3,22.4-95.1,6.5-120.1-28.9c0,0,7.8,31.8,17.8,48.7c9.9,16.9,5.4,52-26.2,62.4
			c0,0-140.8,63.2-329.5,40.9c-55.7-6.6-46.2-80.2-31.4-98.2l-24.7-88.5l-21.5,32.7c0,0,2.5,200.2-9.9,279.8c0,0-47,38.9-123.8,12
			c0,0-40.2-229.9-22.9-327.6c17.3-97.7,109.8-247.5,135.8-263.7c25.9-16.2,143.8-63.2,143.8-63.2l66.5,17.3l14.4,6.9
			L14397.5,5565.4z" clip-rule="evenodd"></path><g><defs><path id="q" d="M14397.5,5565.4c0,0,132.7,25.9,157.3,64.4c24.5,38.5,62.9,154.1,62.9,154.1s125-75,188.5-94.7
					l44.3,104.6c0,0-149.7,144-197.9,166.4c-48.3,22.4-95.1,6.5-120.1-28.9c0,0,7.8,31.8,17.8,48.7c9.9,16.9,5.4,52-26.2,62.4
					c0,0-140.8,63.2-329.5,40.9c-55.7-6.6-46.2-80.2-31.4-98.2l-24.7-88.5l-21.5,32.7c0,0,2.5,200.2-9.9,279.8c0,0-47,38.9-123.8,12
					c0,0-40.2-229.9-22.9-327.6c17.3-97.7,109.8-247.5,135.8-263.7c25.9-16.2,143.8-63.2,143.8-63.2l66.5,17.3l14.4,6.9
					L14397.5,5565.4z"></path></defs><clipPath id="r"><use overflow="visible" xlink:href="#q"></use></clipPath><g clip-path="url(#r)"><g transform="translate(1122.32 541.902) scale(.92191)"><path fill="#5198e1" fill-rule="evenodd" d="M14546.6,5847l-53.7-211c0,0,54.7,196.2,108.2,206.4c72.3,13.8,225.7-79.1,225.7-79.1l-109.7,169.4
						l-109.4-33.9C14607.7,5898.7,14557.5,5889.1,14546.6,5847z" clip-rule="evenodd"></path></g><g transform="translate(1122.32 541.902) scale(.92191)"><path fill="#5198e1" fill-rule="evenodd" d="M14119.2,5809.7c0,0,44.2-77.4,60.3-103.6c0,0-15,97.6,10.7,168.8c0,0-51.2,106.8,38.7,140.1l-54.2,27.8
						l-47.9-28.9l-2.7-141.7L14119.2,5809.7z" clip-rule="evenodd"></path></g></g></g></g><g transform="translate(-14623.6 -5351.66) scale(1.0847)"><path fill-rule="evenodd" d="M14397.9,5563.6c-0.4-0.1-0.7,0-0.9,0.1l-75.9,25.2l-13.7-6.6c-0.1,0-0.3-0.1-0.4-0.1l-66.5-17.3
			c-0.4-0.1-0.8-0.1-1.1,0.1c0,0-118.1,47.1-144.1,63.3c-7.9,4.9-22,22-38.1,46.2c-37.3,55.9-86.4,150.1-98.5,218.7
			c-17.3,97.8,22.9,328.2,22.9,328.2c0.1,0.6,0.6,1.2,1.1,1.4c77.9,27.3,125.7-12.3,125.7-12.3c0.3-0.3,0.6-0.7,0.6-1.1
			c12-77.2,10.1-267.9,10-279.5l18.9-28.9l23.4,83.7c-7.4,9.7-13.3,32.5-10.6,54c2.8,22.3,14.9,43,43.6,46.4
			c186.6,22,326.6-39.3,330.4-41c32.8-10.9,37.4-47.4,27.1-65c-6.6-11.2-12.3-29.1-15.3-39.7c26.5,31,71.1,43.6,116.8,22.3
			c48.4-22.5,198.4-166.8,198.4-166.8c0.6-0.5,0.8-1.3,0.5-2l-44.3-104.6c-0.4-0.9-1.3-1.3-2.2-1c-59,18.3-171,84.2-187,93.7
			c-5.4-16-39.8-116.8-62.4-152.3c-7.5-11.8-24.9-22.5-45.6-31.6C14463.1,5576.4,14397.9,5563.6,14397.9,5563.6z M14397.6,5567.3
			c5.9,1.2,66.7,13.6,111.6,33.3c20,8.8,36.9,18.9,44,30.2c24.5,38.4,62.8,153.6,62.8,153.6c0.2,0.5,0.6,0.9,1.1,1.1
			c0.5,0.2,1,0.1,1.5-0.2c0,0,122.7-73.6,186.6-94l43.2,101.9c-12.4,11.9-150.6,143.9-196.5,165.2c-47.3,22-93.3,6.5-117.8-28.3
			c-0.5-0.7-1.4-1-2.3-0.6c-0.8,0.4-1.2,1.2-0.9,2.1c0,0,7.9,32.2,17.9,49.2c9.5,16.2,5.1,49.8-25.2,59.7c-0.1,0-0.1,0-0.2,0.1
			c0,0-140.5,63-328.5,40.8c-26.9-3.2-37.9-22.5-40.5-43.2c-2.6-20.9,3.1-43.2,10.4-52c0.4-0.5,0.5-1.1,0.3-1.6l-24.6-88.5
			c-0.2-0.7-0.8-1.2-1.5-1.3c-0.7-0.1-1.4,0.2-1.8,0.8l-21.5,32.6c-0.2,0.3-0.3,0.7-0.3,1c0,0,2.5,198.9-9.7,278.7
			c-5.4,4-50.2,35.9-120.6,11.6c-2.9-16.8-39.3-232.3-22.7-325.9c12.1-68.2,60.9-161.8,98-217.3c15.7-23.6,29.2-40.3,37-45.1
			c24.8-15.5,134.2-59.3,142.9-62.8l65.8,17.1l14.2,6.8c0.4,0.2,0.8,0.2,1.3,0.1L14397.6,5567.3L14397.6,5567.3z" clip-rule="evenodd"></path></g><g transform="translate(-14623.6 -5351.66) scale(1.0847)"><path fill-rule="evenodd" d="M14534.4,5930.8l-51.6-196.1c-0.2-1-1.2-1.5-2.2-1.3c-0.9,0.3-1.5,1.2-1.3,2.2l51.6,196.1
			c0.2,1,1.2,1.5,2.2,1.3C14534,5932.8,14534.6,5931.8,14534.4,5930.8z" clip-rule="evenodd"></path></g><g transform="translate(-14623.6 -5351.66) scale(1.0847)"><path fill="#ffcfcf" fill-rule="evenodd" d="M14808.7,5694.9c0,0,62.7-80.5,79.7-86.9l47.3,104.5c0,0-47.2,56.5-93.8,60.8L14808.7,5694.9z" clip-rule="evenodd"></path><g><defs><path id="s" d="M14808.7,5694.9c0,0,62.7-80.5,79.7-86.9l47.3,104.5c0,0-47.2,56.5-93.8,60.8L14808.7,5694.9z"></path></defs><clipPath id="t"><use overflow="visible" xlink:href="#s"></use></clipPath><g clip-path="url(#t)"><g transform="translate(1122.32 541.902) scale(.92191)"><path fill="#ffaab0" fill-rule="evenodd" d="M14913.1,5513.6c-2.6,11.6-5.5,23.1-5.2,35.1c0.3,14.7,4.7,29,9.6,42.7c4.1,11.6,9,24.5,18.4,33
						c4.9,4.4,11.1,7.7,17.2,10.3c14.1,6.1,35.3,12.9,48.6,1.8c15.5-12.9,15.6-38.7,14.2-56.8c-1.1-15.5-2.4-31.2-7-46.2
						c-2.1-6.6-4.6-13.8-9.1-19.3c-5.4-6.4-14.1-10.1-21-14.8c-8.6-5.9-15.6-10.1-26.1-10.6L14913.1,5513.6z" clip-rule="evenodd"></path></g></g></g></g><g transform="translate(-14623.6 -5351.66) scale(1.0847)"><path fill-rule="evenodd" d="M14807.3,5693.8c-0.4,0.5-0.5,1.2-0.3,1.8l33.2,78.4c0.4,0.7,1,1.2,1.9,1.1c18.9-1.7,38-11.9,54-23.6
			c23.9-17.3,41-37.9,41-37.9c0.5-0.5,0.6-1.3,0.3-1.9l-47.4-104.5c-0.4-0.9-1.4-1.3-2.3-0.9c-5.2,1.9-14.7,10.7-25.4,22
			C14838,5654.2,14807.3,5693.8,14807.3,5693.8z M14810.8,5695.1c4.5-5.8,32.1-40.8,54.2-64.4c9.1-9.8,17.3-17.6,22.4-20.4
			l46.2,101.8c-3.5,4-19,21.4-39.7,36.4c-15.1,11-33,20.8-50.9,22.8L14810.8,5695.1L14810.8,5695.1z" clip-rule="evenodd"></path></g><g transform="translate(-14623.6 -5351.66) scale(1.0847)"><path fill-rule="evenodd" d="M14140.2,5897.6c0,0,40.8-69.3,55.7-96.7c0.5-0.9,0.1-2-0.8-2.5c-0.8-0.5-2-0.2-2.5,0.7
			c-14.9,27.3-55.6,96.6-55.6,96.6c-0.6,0.9-0.3,2,0.7,2.5C14138.6,5898.7,14139.6,5898.5,14140.2,5897.6z" clip-rule="evenodd"></path></g><g transform="matrix(1.12163 .0008 -.00096 1.34267 -1023.63 -397.917)"><path fill="#f45fa8" fill-rule="evenodd" d="M1785.8,1027.8c0-4.5-4.4-8.2-9.8-8.2c-15.5,0-45.3,0-60.8,0c-5.4,0-9.9,3.7-9.9,8.2c0,16.8,0,54.9,0,71.7
			c0,4.5,4.4,8.2,9.9,8.2c15.5,0,45.3,0,60.8,0c5.4,0,9.8-3.7,9.8-8.2C1785.8,1082.7,1785.8,1044.6,1785.8,1027.8z" clip-rule="evenodd"></path></g><g transform="matrix(1.12163 .0008 -.00096 1.34267 -1023.63 -397.917)"><path fill-rule="evenodd" d="M1787.6,1027.8c0-5.4-5.2-9.7-11.6-9.7c-15.5,0-45.3,0-60.8,0c-6.4,0-11.6,4.3-11.6,9.7c0,16.8,0,54.9,0,71.7
			c0,5.4,5.2,9.7,11.6,9.7c15.5,0,45.3,0,60.8,0c6.4,0,11.6-4.3,11.6-9.7C1787.6,1082.7,1787.6,1044.6,1787.6,1027.8z
			 M1784.1,1027.8c0,16.8,0,54.9,0,71.7c0,3.7-3.6,6.8-8.1,6.8c-15.5,0-45.3,0-60.8,0c-4.5,0-8.1-3-8.1-6.8c0-16.8,0-54.9,0-71.7
			c0-3.7,3.6-6.8,8.1-6.8c15.5,0,45.3,0,60.8,0C1780.4,1021.1,1784.1,1024.1,1784.1,1027.8z" clip-rule="evenodd"></path></g><g transform="matrix(1.12163 .0008 -.0003 .4239 -1024.47 784.216)"><path fill="#fff" fill-rule="evenodd" d="M1785.8,631.9h-80.5c0,0,0,36.1,0,62.1c0,6.9,1,13.5,2.9,18.4c1.8,4.9,4.4,7.6,7,7.6c15.5,0,45.3,0,60.8,0
			c2.6,0,5.1-2.7,7-7.6c1.8-4.9,2.9-11.5,2.9-18.4C1785.8,668,1785.8,631.9,1785.8,631.9z" clip-rule="evenodd"></path></g><g transform="matrix(1.12163 .0008 -.0003 .4239 -1024.47 784.216)"><path fill-rule="evenodd" d="M1787.6,631.9c0-2.6-0.8-4.6-1.8-4.6l-80.5,0c-1,0-1.8,2.1-1.8,4.6V694c0,8.1,1.2,15.9,3.4,21.7
			c2.2,5.8,5.1,9,8.2,9c15.5,0,45.3,0,60.8,0c3.1,0,6-3.2,8.2-9s3.4-13.6,3.4-21.7C1787.6,668,1787.6,631.9,1787.6,631.9z
			 M1784.1,636.5V694c0,5.7-0.9,11.1-2.4,15.1c-1.5,4-3.6,6.3-5.7,6.3c-15.5,0-45.3,0-60.8,0c-2.1,0-4.2-2.3-5.7-6.3
			c-1.5-4-2.4-9.5-2.4-15.1v-57.5L1784.1,636.5z" clip-rule="evenodd"></path></g><g transform="translate(-1298.19 -304.039) scale(1.26332)"><circle cx="1767.7" cy="1041.4" r="17.3" fill="#fff" fill-rule="evenodd" clip-rule="evenodd"></circle></g><g transform="translate(-1298.19 -304.039) scale(1.26332)"><path fill-rule="evenodd" d="M1767.7,1022.2c-10.6,0-19.2,8.6-19.2,19.2c0,10.6,8.6,19.2,19.2,19.2c10.6,0,19.2-8.6,19.2-19.2
			C1786.9,1030.8,1778.3,1022.2,1767.7,1022.2L1767.7,1022.2z M1767.7,1025.3c8.9,0,16.1,7.2,16.1,16.1c0,8.9-7.2,16.1-16.1,16.1
			s-16.1-7.2-16.1-16.1C1751.6,1032.6,1758.8,1025.3,1767.7,1025.3L1767.7,1025.3z" clip-rule="evenodd"></path></g><g transform="translate(-14623.6 -5351.66) scale(1.0847)"><path fill-rule="evenodd" d="M14282.4,5597.3c0,0,41.9,196.4,58.1,233.7c0.4,0.9,1.4,1.3,2.4,0.9c0.9-0.4,1.3-1.5,0.9-2.4
			c-16.1-37.3-57.8-233.1-57.8-233.1c-0.3-1-1.2-1.6-2.2-1.4C14282.7,5595.3,14282.2,5596.3,14282.4,5597.3z" clip-rule="evenodd"></path></g><g transform="translate(-14623.6 -5351.66) scale(1.0847)"><path fill-rule="evenodd" d="M14361.5,5596.8c0,0-9.5,154.1-21.2,233.2c-0.1,1,0.6,1.9,1.5,2.1c1,0.2,2-0.5,2.1-1.5
			c11.7-79.2,21.3-233.5,21.3-233.5c0-1-0.8-1.9-1.7-1.9C14362.4,5595,14361.6,5595.8,14361.5,5596.8z" clip-rule="evenodd"></path></g><g transform="matrix(1.13116 0 0 1.0847 -15283.6 -5351.66)"><path fill-rule="evenodd" d="M14363.6,6081.7c0,0,8.6,52.5-44.9,82c-0.7,0.4-1,1.2-0.8,1.9c0,0,41.1,219.2,19,307.3
			c-6.6,26.4-34.7,72.6-70.8,124.4c-84.7,121.4-213,273.2-213,273.2c-0.7,0.7-0.6,1.9,0.1,2.6c0.8,0.7,1.8,0.6,2.5-0.2
			c0,0,128.5-152,213.2-273.5c36.5-52.3,64.8-99,71.5-125.6c21.1-84.6-15.5-289.3-18.8-307.6c54.5-31,45.4-85.2,45.4-85.2
			c-0.2-1-1-1.6-2-1.5C14364.1,6079.8,14363.4,6080.7,14363.6,6081.7z" clip-rule="evenodd"></path></g><g transform="translate(-14623.6 -5351.66) scale(1.0847)"><path fill-rule="evenodd" d="M14482.9,6461.6l-6.6-237c0-1-0.8-1.8-1.8-1.8c-1,0-1.8,0.9-1.8,1.9l6.6,237c0,1,0.8,1.8,1.8,1.8
			C14482.1,6463.4,14482.9,6462.6,14482.9,6461.6z" clip-rule="evenodd"></path></g><g transform="translate(-14623.6 -5351.66) scale(1.0847)"><path fill-rule="evenodd" d="M14474,6254.8c0,0,78.2,84.1,129.4,162c21.8,33.2,38.7,65.2,42.4,89c12.5,79.9,16.1,432.7,16.1,432.7
			c0,1,0.8,1.8,1.8,1.8c1,0,1.8-0.8,1.8-1.8c0,0-3.6-353.2-16.1-433.2c-3.8-24.2-20.8-56.7-43-90.4
			c-51.4-78.1-129.8-162.4-129.8-162.4c-0.7-0.7-1.9-0.8-2.5-0.1C14473.4,6252.9,14473.3,6254.1,14474,6254.8z" clip-rule="evenodd"></path></g><g transform="translate(-14645.2 -5350.29) scale(1.0847)"><path fill-rule="evenodd" d="M14818.5,7072.8l-17.9,22.4c-0.7,0.8-0.5,1.9,0.3,2.5c0.8,0.6,1.9,0.5,2.5-0.3l17.9-22.4
			c0.7-0.8,0.5-1.9-0.3-2.5C14820.3,7071.9,14819.2,7072.1,14818.5,7072.8z" clip-rule="evenodd"></path></g><g transform="rotate(43.952 15250.612 -13907.366) scale(1.0847)"><path fill-rule="evenodd" d="M14708.2,7267.1l-17.9,22.4c-0.7,0.8-0.5,1.9,0.3,2.5c0.8,0.6,1.9,0.5,2.5-0.3l17.9-22.4
			c0.7-0.8,0.5-1.9-0.3-2.5C14710,7266.2,14708.9,7266.3,14708.2,7267.1z" clip-rule="evenodd"></path></g><g transform="translate(-14611.7 -5338.65) scale(1.0847)"><path fill-rule="evenodd" d="M14816.7,7072.2l-17.9,22.4c-0.7,0.8-0.5,1.9,0.3,2.5c0.8,0.6,1.9,0.5,2.5-0.3l17.9-22.4
			c0.7-0.8,0.5-1.9-0.3-2.5S14817.4,7071.4,14816.7,7072.2z" clip-rule="evenodd"></path></g><g transform="rotate(43.952 15219.474 -13871.705) scale(1.0847)"><path fill-rule="evenodd" d="M14706.4,7266.5l-17.9,22.4c-0.7,0.8-0.5,1.9,0.3,2.5c0.8,0.6,1.9,0.5,2.5-0.3l17.9-22.4
			c0.7-0.8,0.5-1.9-0.3-2.5S14707.1,7265.7,14706.4,7266.5z" clip-rule="evenodd"></path></g><g transform="translate(-14623.6 -5351.66) scale(1.0847)"><path fill="#a6bf49" fill-rule="evenodd" d="M15104.7,5525.6c7.4-5.8,11.8-15.7,11.8-15.7l0,0c2.4-10.2,9-19.3,18.9-24.5c17.8-9.1,39.8-2.1,48.9,15.8
			c9.1,17.9,2.1,39.8-15.7,48.9c-10,5.1-21.3,5.2-30.9,1.1v0c0,0-10.7-2.3-19.7,0.4l51.3,99.9l-173.5,88.9
			c-28.9,14.8-64.5,3.4-79.4-25.6l-88.8-173.4l99.9-51.2c2.6,9,0.4,19.7,0.4,19.7v0c-4.1,9.6-4.1,20.9,1,30.9
			c9.2,17.9,31.1,24.9,49,15.8c17.8-9.2,24.9-31.1,15.7-48.9c-5.1-10-14.2-16.6-24.4-18.9l0,0c0,0-10-4.4-15.7-11.8l99.9-51.2
			L15104.7,5525.6z" clip-rule="evenodd"></path><g><defs><path id="u" d="M15104.7,5525.6c7.4-5.8,11.8-15.7,11.8-15.7l0,0c2.4-10.2,9-19.3,18.9-24.5
					c17.8-9.1,39.8-2.1,48.9,15.8c9.1,17.9,2.1,39.8-15.7,48.9c-10,5.1-21.3,5.2-30.9,1.1v0c0,0-10.7-2.3-19.7,0.4l51.3,99.9
					l-173.5,88.9c-28.9,14.8-64.5,3.4-79.4-25.6l-88.8-173.4l99.9-51.2c2.6,9,0.4,19.7,0.4,19.7v0c-4.1,9.6-4.1,20.9,1,30.9
					c9.2,17.9,31.1,24.9,49,15.8c17.8-9.2,24.9-31.1,15.7-48.9c-5.1-10-14.2-16.6-24.4-18.9l0,0c0,0-10-4.4-15.7-11.8l99.9-51.2
					L15104.7,5525.6z"></path></defs><clipPath id="v"><use overflow="visible" xlink:href="#u"></use></clipPath><g clip-path="url(#v)"><g transform="translate(1122.32 541.902) scale(.92191)"><path fill="#68a462" fill-rule="evenodd" d="M14906,5395.2c16.1,47.8,37.2,91.9,64.2,134.5c23.3,36.9,51.4,68,97.9,69.8c37,1.4,75.7-19,104.7-40.3
						c20.1-14.6,39.9-32,63.4-40.6c27.5-10.1,67.2-6,75.9,27.1c8.2,31.5-5.3,65.4-20.7,92.4c-38.2,66.9-127.7,115.6-203.4,123.7
						c-29.4,3.2-59.5-0.1-86.6-12.4c-69.3-31.3-201.7-219.6-219.8-291.2L14906,5395.2z" clip-rule="evenodd"></path></g></g></g></g><g transform="translate(-14623.6 -5351.66) scale(1.0847)"><path fill-rule="evenodd" d="M14969,5490.4L14969,5490.4c9.6,2.2,18.3,8.4,23.2,18c8.7,17,2,37.8-15,46.5c-17,8.7-37.8,2-46.5-15
			c-4.9-9.5-4.9-20.2-1-29.3l-1.7,1.1v0l1.8-1.4c0,0,2.4-11.2-0.5-20.6c-0.2-0.5-0.6-0.9-1-1.1c-0.5-0.2-1-0.2-1.5,0l-99.9,51.2
			c-0.8,0.5-1.2,1.5-0.8,2.4l88.8,173.4c15.4,29.9,51.9,41.7,81.8,26.4l173.4-88.9c0.9-0.5,1.2-1.5,0.8-2.4l-50.2-97.9
			c7.6-1.6,15.7-0.1,16.6,0.1c10.1,4.2,21.8,4.1,32.2-1.2c18.7-9.6,26.1-32.6,16.5-51.4c-9.6-18.8-32.6-26.2-51.4-16.6
			c-10.5,5.3-17.3,14.9-19.8,25.5c-0.5,1.1-4,8.4-9.5,13.5l0,0l-50.2-97.9c-0.5-0.9-1.6-1.2-2.5-0.8l-99.9,51.2
			c-0.5,0.2-0.8,0.7-0.9,1.2c-0.1,0.5,0,1.1,0.3,1.5c6,7.8,16.5,12.4,16.5,12.4C14968.7,5490.4,14968.8,5490.4,14969,5490.4z
			 M15118.2,5510.6c-0.4,0.7-4.9,10.6-12.4,16.4c-0.5,0.3-1,0.5-1.5,0.3c-0.6-0.1-1-0.5-1.2-0.9l-50.4-98.3l-96.3,49.4
			c5.1,5.6,12.4,9,13.5,9.5c10.6,2.4,20.1,9.4,25.5,19.8c9.6,18.7,2.2,41.8-16.6,51.4c-18.7,9.6-41.8,2.2-51.4-16.6
			c-5.3-10.4-5.4-22.2-1.2-32.2c0.3-1,1.8-9,0.2-16.6l-96.3,49.4l88.1,171.8c14.3,28.1,48.7,39.2,76.8,24.8l171.9-88.1l-50.4-98.3
			c-0.2-0.5-0.3-1,0-1.5c0.2-0.5,0.6-0.9,1.1-1c9.4-2.8,20.6-0.4,20.6-0.4l-0.4,3.5c0.2-0.6,0.8-3.8,1.6-2.7
			c-0.3-0.3-0.6-0.6-0.8-0.7c9,3.9,19.8,3.9,29.3-1c17-8.7,23.7-29.5,15-46.5c-8.7-17-29.5-23.7-46.5-15c-9.5,4.9-15.8,13.6-18,23.2
			C15118.3,5510.3,15118.3,5510.4,15118.2,5510.6L15118.2,5510.6L15118.2,5510.6L15118.2,5510.6L15118.2,5510.6z M15139.4,5550.4
			c0.2,0.4-1.5,2.4-1.7,2.6c0.8,0,1.6-0.6,1.8-1.5C15139.6,5551.1,15139.5,5550.7,15139.4,5550.4z M15139.3,5550.3L15139.3,5550.3
			L15139.3,5550.3L15139.3,5550.3z M15139.3,5550.2L15139.3,5550.2L15139.3,5550.2z M14928,5511.6c0-0.4-0.3-3.7-0.8-3.4
			c-0.7,0.3-0.8,0.7-0.8,1.2L14928,5511.6z M15115,5510.7c0,0,0,0.1,0,0.1c0.4,0.5,0.9,0.8,1.5,0.8
			C15116.5,5511.6,15115.1,5511,15115,5510.7z M15114.8,5509.4c-0.1,0.4-0.1,0.9,0.2,1.3l1.5,0.9L15114.8,5509.4z M15114.8,5509.4
			L15114.8,5509.4L15114.8,5509.4z M14969.3,5490.5L14969.3,5490.5L14969.3,5490.5L14969.3,5490.5z M14969.3,5490.5
			c0,0-0.4-3.7-0.9-3.4L14969.3,5490.5z M14969.2,5490.5L14969.2,5490.5L14969.2,5490.5L14969.2,5490.5z M14969.2,5490.5
			L14969.2,5490.5L14969.2,5490.5L14969.2,5490.5z M14969,5490.5L14969,5490.5L14969,5490.5L14969,5490.5z" clip-rule="evenodd"></path></g><g transform="translate(-14623.6 -5351.66) scale(1.0847)"><path fill="#f45fa8" fill-rule="evenodd" d="M15315.3,5285.5H15203c1.8,9.2,8.7,17.7,8.7,17.7l0,0c8,6.7,13.1,16.7,13.1,28c0,20.1-16.3,36.4-36.3,36.4
			c-20.1,0-36.4-16.3-36.4-36.4c0-11.2,5.1-21.3,13.1-28l0,0c0,0,6.9-8.5,8.6-17.7h-112.3v-194.9c0-32.6,26.4-58.9,59-58.9h194.9
			v112.3c-9.2-1.7-17.7-8.6-17.7-8.6v0c-6.7-8-16.8-13.1-28-13.1c-20.1,0-36.4,16.3-36.4,36.4c0,20.1,16.3,36.4,36.4,36.4
			c11.2,0,21.3-5.1,28-13.1l0,0c0,0,8.5-6.9,17.7-8.6V5285.5z" clip-rule="evenodd"></path><g><defs><path id="w" d="M15315.3,5285.5H15203c1.8,9.2,8.7,17.7,8.7,17.7l0,0c8,6.7,13.1,16.7,13.1,28
					c0,20.1-16.3,36.4-36.3,36.4c-20.1,0-36.4-16.3-36.4-36.4c0-11.2,5.1-21.3,13.1-28l0,0c0,0,6.9-8.5,8.6-17.7h-112.3v-194.9
					c0-32.6,26.4-58.9,59-58.9h194.9v112.3c-9.2-1.7-17.7-8.6-17.7-8.6v0c-6.7-8-16.8-13.1-28-13.1c-20.1,0-36.4,16.3-36.4,36.4
					c0,20.1,16.3,36.4,36.4,36.4c11.2,0,21.3-5.1,28-13.1l0,0c0,0,8.5-6.9,17.7-8.6V5285.5z"></path></defs><clipPath id="x"><use overflow="visible" xlink:href="#w"></use></clipPath><g clip-path="url(#x)"><g transform="translate(1122.32 541.902) scale(.92191)"><path fill="#f23492" fill-rule="evenodd" d="M15386.6,4869.1c-36.5,15.8-74.6,23.4-114.1,27.2c-24.6,2.3-52-0.3-75.7,8c-53,18.4-46.9,97.6-40.1,142
						c2.6,16.8,6.6,36.7,18.3,49.9c25.5,28.6,69.8,33.5,105.7,29.6c16.7-1.8,34.7-6.1,51.5-3.6c35.5,5.1,55.2,41.5,52.3,75.7
						c-1.3,15.3-6.3,29-14.5,41.9c-22,34.6-60.8,43.5-99.2,46.2c-72.3,5.1-168.8-14.9-213-78.8c-64.3-92.9-26.6-279.3,4-379.6
						L15386.6,4869.1z" clip-rule="evenodd"></path></g></g></g></g><g transform="translate(-14623.6 -5351.66) scale(1.0847)"><path fill-rule="evenodd" d="M15163.8,5301.9c-8.3,7-13.6,17.5-13.6,29.2c0,21.1,17.1,38.2,38.2,38.2c21,0,38.1-17.1,38.1-38.2
			c0-11.7-5.3-22.2-13.6-29.2c-0.8-1-5.7-7.3-7.6-14.6h110c0.9,0,1.8-0.8,1.8-1.8v-112.3c0-0.5-0.3-1-0.7-1.4
			c-0.4-0.3-0.9-0.5-1.5-0.4c-9.6,1.8-18.5,9-18.5,9l1.1,3.2l-1.8-1.8c-0.1-0.4,0.1-0.9,0.4-1.2c-6.3,7.6-15.9,12.5-26.6,12.5
			c-19,0-34.5-15.5-34.5-34.6c0-19.1,15.5-34.6,34.5-34.6c10.7,0,20.3,4.9,26.6,12.5c0.1,0.2,0.3,0.3,0.5,0.4
			c1.4,1.1,9.5,7.2,18.3,8.8c0.6,0.1,1.1,0,1.5-0.4c0.4-0.3,0.7-0.9,0.7-1.4v-112.3c0-1-0.8-1.8-1.8-1.8h-194.9
			c-33.6,0-60.8,27.2-60.8,60.8v194.9c0,1,0.8,1.8,1.8,1.8h110C15169.5,5294.7,15164.4,5301.2,15163.8,5301.9z M15298.8,5134
			c-7.1-8.3-17.5-13.6-29.2-13.6c-21,0-38.2,17.1-38.2,38.2c0,21.1,17.2,38.2,38.2,38.2c11.8,0,22.2-5.3,29.2-13.6
			c0.9-0.8,7.4-5.6,14.6-7.6v108.2l0,0H15203c-0.5,0-1,0.2-1.3,0.7c-0.4,0.4-0.5,1-0.4,1.5c1.8,9.7,9,18.5,9,18.5
			c0.1,0.1,0.2,0.2,0.3,0.3v0c7.6,6.3,12.4,15.9,12.4,26.6c0,19.1-15.5,34.6-34.5,34.6c-19.1,0-34.6-15.5-34.6-34.6
			c0-10.7,4.9-20.2,12.4-26.6l-1.1,0.4v0l1.4-0.7c0,0,7.2-8.9,9-18.5c0.1-0.5,0-1.1-0.4-1.5c-0.3-0.4-0.8-0.7-1.4-0.7h-110.4
			c0-19.7,0-193,0-193c0-31.6,25.5-57.1,57.1-57.1h193v108.2C15306.1,5139.6,15299.6,5134.6,15298.8,5134z M15211.5,5305
			L15211.5,5305L15211.5,5305L15211.5,5305z M15211.6,5305l-0.1-3.6C15212.2,5301.3,15211.6,5305,15211.6,5305z M15211.4,5305
			L15211.4,5305L15211.4,5305L15211.4,5305z M15211.3,5305L15211.3,5305L15211.3,5305L15211.3,5305z M15211.2,5304.9L15211.2,5304.9
			C15211.2,5305,15211.2,5304.9,15211.2,5304.9z M15211.2,5304.9L15211.2,5304.9L15211.2,5304.9L15211.2,5304.9z M15211.1,5304.9
			L15211.1,5304.9L15211.1,5304.9L15211.1,5304.9z M15211,5304.9L15211,5304.9L15211,5304.9L15211,5304.9z M15210.9,5304.8
			L15210.9,5304.8C15210.9,5304.8,15210.9,5304.8,15210.9,5304.8z M15210.8,5304.8L15210.8,5304.8L15210.8,5304.8L15210.8,5304.8z
			 M15210.7,5304.7L15210.7,5304.7L15210.7,5304.7L15210.7,5304.7z M15210.6,5304.7L15210.6,5304.7
			C15210.6,5304.7,15210.6,5304.7,15210.6,5304.7z M15210.5,5304.6L15210.5,5304.6L15210.5,5304.6L15210.5,5304.6z M15295.8,5181.8
			c0,0.2,0,0.5,0.1,0.7c0.4,0.6,0.9,1,1.7,1C15297.6,5183.6,15295.8,5182.3,15295.8,5181.8z M15299,5134.2l-0.2-0.2
			c0.5,0.5,0.7,1.2,0.5,1.9c-0.3,0.7-0.9,1.2-1.7,1.2l1.8-1.8l-1.8,1.7L15299,5134.2z M15297.6,5137.1l-1-0.3
			c-0.4-0.3-0.8-0.7-0.8-1.5C15295.8,5134.9,15297.4,5136.9,15297.6,5137.1z" clip-rule="evenodd"></path></g><g transform="translate(-14623.6 -5351.66) scale(1.0847)"><path fill="#ffa465" fill-rule="evenodd" d="M15427.6,5285.5h-112.3v-112.3c-9.2,1.7-17.7,8.6-17.7,8.6l0,0c-6.7,8-16.8,13.1-28,13.1
			c-20.1,0-36.4-16.3-36.4-36.4c0-20.1,16.3-36.4,36.4-36.4c11.2,0,21.3,5.1,28,13.1v0c0,0,8.5,6.9,17.7,8.6v-112.3h194.9
			c32.5,0,58.9,26.4,58.9,58.9v194.9h-112.3c1.7-9.2,8.6-17.7,8.6-17.7l0,0c8-6.7,13.1-16.7,13.1-28c0-20.1-16.2-36.4-36.3-36.4
			c-20.1,0-36.4,16.3-36.4,36.4c0,11.2,5.1,21.3,13.1,28l0,0C15418.9,5267.8,15425.9,5276.2,15427.6,5285.5z" clip-rule="evenodd"></path><g><defs><path id="y" d="M15427.6,5285.5h-112.3v-112.3c-9.2,1.7-17.7,8.6-17.7,8.6l0,0c-6.7,8-16.8,13.1-28,13.1
					c-20.1,0-36.4-16.3-36.4-36.4c0-20.1,16.3-36.4,36.4-36.4c11.2,0,21.3,5.1,28,13.1v0c0,0,8.5,6.9,17.7,8.6v-112.3h194.9
					c32.5,0,58.9,26.4,58.9,58.9v194.9h-112.3c1.7-9.2,8.6-17.7,8.6-17.7l0,0c8-6.7,13.1-16.7,13.1-28c0-20.1-16.2-36.4-36.3-36.4
					c-20.1,0-36.4,16.3-36.4,36.4c0,11.2,5.1,21.3,13.1,28l0,0C15418.9,5267.8,15425.9,5276.2,15427.6,5285.5z"></path></defs><clipPath id="z"><use overflow="visible" xlink:href="#y"></use></clipPath><g clip-path="url(#z)"><g transform="translate(1122.32 541.902) scale(.92191)"><path fill="#f37f3e" fill-rule="evenodd" d="M15639,4860.9c3.1,55.8,9.9,110.2,2.5,166.1c-3.8,28.2-9.2,57.6-34.8,74.3c-17.3,11.3-39.5,9.4-59,8
						c-39.8-2.9-79.5-13.7-119.4-5.8c-11.1,2.2-23.4,5.3-32.6,12.2c-20,15-31.7,51.4-8.1,67.6c23.7,16.3,55.2,23.4,82.1,31.9
						c96.4,30.6,218.6,41.9,296.8-36.8c75.4-75.8,75.9-182.1,27.8-272.1c-20.5-38.2-53.7-75.4-95.2-91.9L15639,4860.9z" clip-rule="evenodd"></path></g></g></g></g><g transform="translate(-14623.6 -5351.66) scale(1.0847)"><path fill-rule="evenodd" d="M15298.8,5134c-7.1-8.3-17.5-13.6-29.2-13.6c-21,0-38.2,17.1-38.2,38.2c0,21.1,17.2,38.2,38.2,38.2
			c11.8,0,22.2-5.3,29.2-13.6c0.9-0.8,7.4-5.6,14.6-7.6v110c0,1,0.8,1.8,1.9,1.8h112.3c0.6,0,1-0.2,1.4-0.7c0.3-0.4,0.5-1,0.4-1.5
			c-1.8-9.7-9-18.5-9-18.5v0c0-0.1-0.1-0.2-0.2-0.3c-7.6-6.3-12.5-15.9-12.5-26.6c0-19.1,15.6-34.6,34.6-34.6s34.5,15.5,34.5,34.6
			c0,10.7-4.8,20.2-12.4,26.6c-0.2,0.1-0.3,0.3-0.4,0.5c-1.1,1.4-7.2,9.5-8.9,18.3c-0.1,0.5,0,1.1,0.4,1.5c0.4,0.4,0.8,0.7,1.4,0.7
			h112.3c1,0,1.8-0.8,1.8-1.8v-194.9c0-33.6-27.2-60.8-60.7-60.8h-194.9c-1,0-1.9,0.8-1.9,1.8v110
			C15306.1,5139.6,15299.6,5134.6,15298.8,5134z M15466.8,5269c8.3-7,13.6-17.5,13.6-29.2c0-21.1-17.2-38.2-38.2-38.2
			c-21.1,0-38.2,17.1-38.2,38.2c0,11.7,5.3,22.2,13.7,29.2c0.8,1,5.6,7.3,7.6,14.6l0,0h-108.2v-110.5c0-0.5-0.3-1-0.7-1.4
			c-0.4-0.3-0.9-0.5-1.5-0.4c-9.6,1.8-18.5,9-18.5,9l1.1,3.2l-1.8-1.8c-0.1-0.4,0.1-0.9,0.4-1.2c-6.3,7.6-15.9,12.5-26.6,12.5
			c-19,0-34.5-15.5-34.5-34.6c0-19.1,15.5-34.6,34.5-34.6c10.7,0,20.3,4.9,26.6,12.5c0.1,0.2,0.3,0.3,0.5,0.4
			c1.4,1.1,9.5,7.2,18.3,8.8c0.6,0.1,1.1,0,1.5-0.4c0.4-0.3,0.7-0.9,0.7-1.4v-110.5h193.1c31.5,0,57.1,25.6,57.1,57.1v193h-108.2
			C15461.2,5276.2,15466.2,5269.8,15466.8,5269z M15465.5,5269.5L15465.5,5269.5L15465.5,5269.5L15465.5,5269.5z M15418.9,5269.6
			L15418.9,5269.6L15418.9,5269.6L15418.9,5269.6z M15418.9,5269.6v-3.6C15419.5,5265.9,15418.9,5269.5,15418.9,5269.6z
			 M15418.8,5269.6L15418.8,5269.6L15418.8,5269.6L15418.8,5269.6z M15418.7,5269.5L15418.7,5269.5L15418.7,5269.5L15418.7,5269.5z
			 M15418.6,5269.5L15418.6,5269.5L15418.6,5269.5L15418.6,5269.5z M15418.6,5269.5L15418.6,5269.5L15418.6,5269.5L15418.6,5269.5z
			 M15418.5,5269.5L15418.5,5269.5L15418.5,5269.5L15418.5,5269.5z M15418.4,5269.5L15418.4,5269.5L15418.4,5269.5L15418.4,5269.5z
			 M15418.3,5269.4L15418.3,5269.4L15418.3,5269.4z M15418.2,5269.4L15418.2,5269.4L15418.2,5269.4L15418.2,5269.4z M15418.1,5269.3
			L15418.1,5269.3L15418.1,5269.3L15418.1,5269.3z M15418,5269.3L15418,5269.3L15418,5269.3L15418,5269.3z M15417.9,5269.2
			L15417.9,5269.2L15417.9,5269.2L15417.9,5269.2z M15417.9,5269.2L15417.9,5269.2L15417.9,5269.2L15417.9,5269.2z M15295.8,5181.8
			c0,0.2,0,0.5,0.1,0.7c0.4,0.6,0.9,1,1.7,1C15297.6,5183.6,15295.8,5182.3,15295.8,5181.8z M15299,5134.2l-1.4,2.9l1.8-1.7
			l-1.8,1.8c0.8,0,1.4-0.5,1.7-1.2c0.2-0.7,0-1.4-0.5-1.9L15299,5134.2z M15297.6,5137.1c-0.2-0.2-1.8-2.3-1.8-1.9
			c-0.1,0.8,0.4,1.2,0.8,1.5L15297.6,5137.1z" clip-rule="evenodd"></path></g><g transform="translate(-14623.6 -5351.66) scale(1.0847)"><path fill="#a1a2ff" fill-rule="evenodd" d="M15315.3,5285.5h112.3c-1.7-9.2-8.7-17.7-8.7-17.7l0,0c-8-6.7-13.1-16.7-13.1-28c0-20.1,16.3-36.4,36.4-36.4
			c20.1,0,36.3,16.3,36.3,36.4c0,11.2-5.1,21.3-13.1,28l0,0c0,0-6.9,8.5-8.6,17.7h112.3v194.9c0,32.6-26.4,58.9-58.9,58.9h-194.9
			V5427c9.2,1.7,17.7,8.6,17.7,8.6v0c6.6,8,16.7,13.1,27.9,13.1c20.1,0,36.4-16.3,36.4-36.4c0-20.1-16.3-36.4-36.4-36.4
			c-11.2,0-21.3,5.1-27.9,13.1l0,0c0,0-8.5,6.9-17.7,8.6V5285.5z" clip-rule="evenodd"></path><g><defs><path id="A" d="M15315.3,5285.5h112.3c-1.7-9.2-8.7-17.7-8.7-17.7l0,0c-8-6.7-13.1-16.7-13.1-28
					c0-20.1,16.3-36.4,36.4-36.4c20.1,0,36.3,16.3,36.3,36.4c0,11.2-5.1,21.3-13.1,28l0,0c0,0-6.9,8.5-8.6,17.7h112.3v194.9
					c0,32.6-26.4,58.9-58.9,58.9h-194.9V5427c9.2,1.7,17.7,8.6,17.7,8.6v0c6.6,8,16.7,13.1,27.9,13.1c20.1,0,36.4-16.3,36.4-36.4
					c0-20.1-16.3-36.4-36.4-36.4c-11.2,0-21.3,5.1-27.9,13.1l0,0c0,0-8.5,6.9-17.7,8.6V5285.5z"></path></defs><clipPath id="B"><use overflow="visible" xlink:href="#A"></use></clipPath><g clip-path="url(#B)"><g transform="translate(1122.32 541.902) scale(.92191)"><path fill="#7f80e6" fill-rule="evenodd" d="M15602.2,5146.4c10.5,55.4,17,113.7,15.7,170.2c-0.5,21.2-0.2,49.3-18.3,64.2
						c-54.1,44.7-128.6,17.7-191.1,20.9c-36.4,1.9-59.8,25.8-50.8,64.7c7.8,33.9,40.3,59.4,68.5,76.1
						c99.3,58.4,200.7,59.7,294.5-14.2c62.6-49.2,92.2-140.9,94.6-218.6c2.5-82.5-42.1-226-96.6-290.7L15602.2,5146.4z" clip-rule="evenodd"></path></g></g></g></g><g transform="translate(-14623.6 -5351.66) scale(1.0847)"><path fill-rule="evenodd" d="M15417.7,5269c0.8,1,5.6,7.3,7.6,14.6h-110c-1,0-1.9,0.8-1.9,1.8v112.3c0,0.5,0.3,1.1,0.7,1.4
			c0.5,0.3,1,0.5,1.5,0.4c9.7-1.8,18.6-9,18.6-9l0,0c0.1-0.1,0.2-0.2,0.2-0.2c6.4-7.6,15.9-12.5,26.6-12.5
			c19.1,0,34.6,15.5,34.6,34.5c0,19.1-15.5,34.6-34.6,34.6c-10.7,0-20.2-4.9-26.6-12.5c0.3,0.3,0.5,0.8,0.5,1.2l-1.8,1.7l1.1-3.2
			c0,0-8.9-7.2-18.6-9c-0.5-0.1-1,0-1.5,0.4c-0.4,0.3-0.7,0.8-0.7,1.4v112.3c0,1,0.8,1.8,1.9,1.8h194.9c33.6,0,60.7-27.2,60.7-60.8
			v-194.9c0-1-0.8-1.8-1.8-1.8h-110c2.1-7.4,7.1-13.9,7.7-14.7c8.3-7,13.6-17.5,13.6-29.2c0-21.1-17.2-38.2-38.2-38.2
			c-21.1,0-38.2,17.1-38.2,38.2C15404,5251.5,15409.3,5262,15417.7,5269z M15463.9,5266.8c-1.1,1.4-7.2,9.5-8.9,18.3
			c-0.1,0.5,0,1.1,0.4,1.5c0.4,0.4,0.8,0.7,1.4,0.7h110.5v193.1c0,31.6-25.6,57.1-57.1,57.1c0,0-173.4,0-193.1,0v-108.2
			c7.4,2.1,13.9,7.1,14.7,7.7c7,8.3,17.4,13.6,29.1,13.6c21.1,0,38.2-17.1,38.2-38.2c0-21.1-17.1-38.2-38.2-38.2
			c-11.7,0-22.2,5.3-29.2,13.7c-0.9,0.8-7.4,5.6-14.6,7.6v-108.2l0,0h110.5c0.6,0,1-0.2,1.4-0.7c0.3-0.4,0.5-1,0.4-1.5
			c-1.8-9.7-9-18.5-9-18.5v0c0-0.1-0.1-0.2-0.2-0.3c-7.6-6.3-12.5-15.9-12.5-26.6c0-19.1,15.6-34.6,34.6-34.6s34.5,15.5,34.5,34.6
			c0,10.7-4.8,20.2-12.4,26.6C15464.1,5266.5,15464,5266.6,15463.9,5266.8z M15334.8,5435.6l-1.8,1.8c0.7,0,1.3-0.4,1.6-1
			C15334.7,5436.1,15334.8,5435.9,15334.8,5435.6z M15333,5437.4c-0.2-0.3-1.8-2.3-1.8-1.9c0,0.6,0.2,1,0.5,1.2L15333,5437.4z
			 M15331.6,5388c-0.4,0.5-0.6,1.1-0.4,1.8c0.3,0.7,0.9,1.2,1.8,1.2c-0.1,0-1.9-1.3-1.9-1.8l1.9,1.8L15331.6,5388L15331.6,5388z
			 M15465.5,5269.5L15465.5,5269.5L15465.5,5269.5L15465.5,5269.5z M15418.9,5269.6L15418.9,5269.6L15418.9,5269.6L15418.9,5269.6z
			 M15418.9,5269.6c0,0,0.6-3.6,0-3.6V5269.6z M15418.8,5269.6L15418.8,5269.6L15418.8,5269.6L15418.8,5269.6z M15418.7,5269.5
			L15418.7,5269.5L15418.7,5269.5L15418.7,5269.5z M15418.6,5269.5L15418.6,5269.5L15418.6,5269.5L15418.6,5269.5z M15418.6,5269.5
			L15418.6,5269.5L15418.6,5269.5L15418.6,5269.5z M15418.5,5269.5L15418.5,5269.5L15418.5,5269.5L15418.5,5269.5z M15418.4,5269.5
			L15418.4,5269.5L15418.4,5269.5L15418.4,5269.5z M15418.3,5269.4L15418.3,5269.4L15418.3,5269.4z M15418.2,5269.4L15418.2,5269.4
			L15418.2,5269.4L15418.2,5269.4z M15418.1,5269.3L15418.1,5269.3L15418.1,5269.3L15418.1,5269.3z M15418,5269.3L15418,5269.3
			L15418,5269.3L15418,5269.3z M15417.9,5269.2L15417.9,5269.2L15417.9,5269.2L15417.9,5269.2z M15417.9,5269.2L15417.9,5269.2
			L15417.9,5269.2L15417.9,5269.2z" clip-rule="evenodd"></path></g><g transform="matrix(-.9482 .19332 .26666 1.30792 2638.96 -720.59)"><ellipse cx="1989.3" cy="650.9" fill-rule="evenodd" clip-rule="evenodd" rx="7" ry="9.7" transform="rotate(-11.526 1988.989 650.88)"></ellipse></g><g transform="matrix(.98056 0 0 1.0847 -13147.7 -5351.66)"><path fill="#a6bf49" fill-rule="evenodd" d="M15197.9,7167c0,0-58.8-54.7-18.9-102.1c35.3-41.9,83.6-0.9,83.6-0.9s0-124.8,93.4-117.1
			c83.5,6.9,53.3,91.6,53.3,91.6s64.3-60.3,105.8-23.5c37.2,33.1-1.1,79.7-1.1,79.7s70-14.1,89.9,17.7c15.5,24.6-5.2,54.6-5.2,54.6
			H15197.9z" clip-rule="evenodd"></path><g><defs><path id="C" d="M15197.9,7167c0,0-58.8-54.7-18.9-102.1c35.3-41.9,83.6-0.9,83.6-0.9s0-124.8,93.4-117.1
					c83.5,6.9,53.3,91.6,53.3,91.6s64.3-60.3,105.8-23.5c37.2,33.1-1.1,79.7-1.1,79.7s70-14.1,89.9,17.7
					c15.5,24.6-5.2,54.6-5.2,54.6H15197.9z"></path></defs><clipPath id="D"><use overflow="visible" xlink:href="#C"></use></clipPath><g clip-path="url(#D)"><g transform="matrix(1.01983 0 0 .92191 -263.632 541.902)"><path fill="#68a462" fill-rule="evenodd" d="M15229.4,7194.7c-21.1-17.2-31.9-58.4,0.4-70.4c16.1-6,30.8,2.2,40.3,15.6c3,4.3,5.4,8.9,7.5,13.7
						c0.7,1.5,1.2,3,1.9,4.4c0.3,0.8,1,3.2,0.8,2.4c-1.7-6.7-3.6-13.2-4.6-20.1c-3.2-23.1,7.1-69,40-61.6
						c19.4,4.4,29.8,26.1,29.6,44.6c-0.1,7.2-0.9,14.2-2.9,21.2c-0.6,2.3-1.4,4.5-2.3,6.8c-0.4,1-1.6,3.8-1.1,2.9
						c9.8-19.2,24.7-38.2,43.3-49.6c7.4-4.5,19.9-8.6,27.5-2.5c14,11.3,7.1,29.3-0.7,42.3c-2.5,4.3-5.6,8.4-8.6,12.4
						c-0.8,1.1-1.6,2.2-2.5,3.2c-0.7,0.8-2.7,2.9-1.9,2.3c20.4-16.6,45.2-26.4,71.6-27c12.7-0.3,28.3,2.1,37.6,11.6
						c15.4,15.6-0.6,42.2-11.5,54.9c-2.8,3.2-5.9,6.9-9.2,9.7c-3.8,3.1-7.4,6.3-11.4,9c-5.2,3.5-10.5,6.8-15.8,9.9
						c-17.7,10.1-37.4,19.8-57.6,23.1c-20.8,3.4-41.9,4-62.9,3.9c-31.4-0.1-63.2-4.5-87.4-26.1L15229.4,7194.7z" clip-rule="evenodd"></path></g></g></g></g><g transform="matrix(.98056 0 0 1.0847 -13147.7 -5351.66)"><path fill-rule="evenodd" d="M15196.5,7168.3c0.4,0.3,0.9,0.5,1.4,0.5h400.9c0.8,0,1.3-0.3,1.7-0.8c0,0,7.6-11.1,10.3-25.4
			c1.9-9.7,1.4-20.8-5-31c-8.3-13.2-24.8-18.9-41.8-20.9c-18.3-2.1-37,0.1-45.6,1.5c3.3-4.7,8.8-13.6,12.2-24.3
			c5.1-16.3,5.3-36.9-14-54.1c-17.3-15.3-38.3-14.6-57.2-8.1c-20,6.8-37.7,20.1-46.2,27.1c1.5-5.6,3.3-14.5,3.6-24.5
			c0.4-15.5-2.9-33.6-16.7-46.5c-9.2-8.6-23.1-15-43.7-16.7c-38.4-3.1-61.4,15.4-75.1,38.9c-16.9,28.6-19.8,64.6-20.4,76.3
			c-11.7-8.4-52.4-33.2-83.3,3.6c-20.6,24.3-15.7,50.5-5.8,70.7C15181.6,7154.4,15196.5,7168.3,15196.5,7168.3z M15198.9,7165.2
			c-2.8-2.7-15.1-15.2-23.5-32.2c-9.5-19.1-14.1-43.9,5.2-67c34-40.4,80.8-0.7,80.8-0.7c0.6,0.5,1.4,0.6,2.2,0.3
			c0.7-0.3,1.1-0.9,1.1-1.7c0,0,0-44.5,20-78.4c13.1-22.3,34.9-40,71.4-37c19.3,1.6,32.4,7.5,41.1,15.6c13,12.2,15.9,29.3,15.6,43.9
			c-0.5,16.4-5.2,29.8-5.2,29.8c-0.3,0.8,0.1,1.7,0.9,2.1c0.8,0.4,1.8,0.3,2.5-0.3c0,0,22.8-21.4,49.9-30.7c17.5-6,37-6.9,53,7.3
			c18,16,17.6,35.2,12.9,50.5c-4.8,15.4-14.2,26.8-14.2,26.8c-0.5,0.6-0.5,1.4,0,2.1c0.5,0.6,1.2,0.9,2.1,0.8c0,0,24.9-5,49-2.2
			c15.6,1.8,31.1,6.9,38.7,19.1c5.8,9.4,6.2,19.7,4.6,28.6c-2.2,11.3-7.5,20.5-9.2,23.2H15198.9L15198.9,7165.2z" clip-rule="evenodd"></path></g><g transform="translate(-14623.6 -5351.66) scale(1.0847)"><path fill="#5198e1" fill-rule="evenodd" d="M14272.1,5544.6l48.8,46.3l-34.6,39l-53.8-54.5l31.3-36.2l7.6-1.1L14272.1,5544.6z" clip-rule="evenodd"></path></g><g transform="translate(-14623.6 -5351.66) scale(1.0847)"><path fill-rule="evenodd" d="M14273.8,5543.7l-0.6-5.9c0-0.5-0.3-0.9-0.7-1.2c-0.4-0.3-0.8-0.4-1.4-0.4l-7.6,1.1c-0.4,0.1-0.8,0.3-1,0.6
			l-31.3,36.2c-0.7,0.7-0.6,1.8,0.1,2.5l53.8,54.5c0.3,0.4,0.8,0.6,1.3,0.5c0.5,0,0.9-0.2,1.3-0.6l34.5-39c0.7-0.7,0.7-1.8-0.1-2.5
			L14273.8,5543.7z M14270.3,5544.7c0,0.4,0.2,0.8,0.6,1.1l47.5,45l-32.1,36.2l-51.3-51.9l29.7-34.4l5.1-0.7L14270.3,5544.7z" clip-rule="evenodd"></path></g><g transform="translate(-14623.6 -5351.66) scale(1.0847)"><path fill="#5198e1" fill-rule="evenodd" d="M14320.9,5590.8l34.6-52.8h7.3l34.7,27.4l-32.9,54L14320.9,5590.8z" clip-rule="evenodd"></path></g><g transform="translate(-14623.6 -5351.66) scale(1.0847)"><path fill-rule="evenodd" d="M14319.4,5589.8c-0.6,0.8-0.4,2,0.5,2.5l43.6,28.6c0.5,0.3,0.9,0.4,1.4,0.3c0.5-0.1,0.8-0.4,1.1-0.8l32.9-54
			c0.5-0.8,0.3-1.8-0.4-2.4l-34.7-27.4c-0.3-0.3-0.7-0.4-1.1-0.4h-7.3c-0.7,0-1.2,0.3-1.5,0.8L14319.4,5589.8z M14323.4,5590.3
			l33.1-50.5h5.8l32.9,26l-31.1,51L14323.4,5590.3z" clip-rule="evenodd"></path></g><g transform="translate(-14623.6 -5351.66) scale(1.0847)"><path fill="#ffcfcf" fill-rule="evenodd" d="M14854.1,5676.3c0,0,39.7-31.7,49.1-35.5c9.3-3.8,24.4-13.9,29.3-8c4.9,5.9-9.2,29.2-23.9,37.3l-7.1,10.6
			c0,0-3.5,33.3-20.3,54.4L14854.1,5676.3z" clip-rule="evenodd"></path></g><g transform="translate(-14623.6 -5351.66) scale(1.0847)"><path fill-rule="evenodd" d="M14855.3,5677.7c0,0,39.3-31.5,48.6-35.2c5.6-2.2,13.2-6.8,19.4-8.8c1.9-0.6,3.6-1,5.1-0.9
			c1.1,0,2.1,0.4,2.7,1.2c0.6,0.6,0.7,1.5,0.6,2.5c0,1.4-0.4,3.1-1,4.9c-3.3,9.1-13,21.7-22.9,27.2c-0.3,0.1-0.5,0.3-0.7,0.6
			l-7.1,10.6c-0.2,0.2-0.3,0.5-0.3,0.8c0,0-3.4,32.7-19.9,53.5c-0.6,0.8-0.5,1.9,0.3,2.5c0.8,0.6,2,0.5,2.5-0.3
			c15.9-20,20.1-50.8,20.6-54.9l6.7-9.9c10.5-6,20.6-19.3,24.1-28.9c0.9-2.7,1.4-5.1,1.3-7.1c-0.1-1.6-0.7-2.9-1.4-3.9
			c-1.9-2.2-4.8-2.8-8.5-2.2c-6.8,1.2-16.3,7-23,9.7c-9.4,3.8-49.5,35.7-49.5,35.7c-0.8,0.6-0.8,1.8-0.3,2.5
			C14853.4,5678.2,14854.5,5678.3,14855.3,5677.7z" clip-rule="evenodd"></path></g></g></svg>